<svg width="800" height="600" viewBox="0 0 800 600" fill="none" xmlns="http://www.w3.org/2000/svg">
  <!-- Background elements -->
  <rect width="800" height="600" fill="#061425" />
  
  <!-- Grid pattern -->
  <path d="M0 50 H800 M0 100 H800 M0 150 H800 M0 200 H800 M0 250 H800 M0 300 H800 M0 350 H800 M0 400 H800 M0 450 H800 M0 500 H800 M0 550 H800" stroke="#00B4FF" stroke-width="0.5" stroke-opacity="0.1" />
  <path d="M50 0 V600 M100 0 V600 M150 0 V600 M200 0 V600 M250 0 V600 M300 0 V600 M350 0 V600 M400 0 V600 M450 0 V600 M500 0 V600 M550 0 V600 M600 0 V600 M650 0 V600 M700 0 V600 M750 0 V600" stroke="#00B4FF" stroke-width="0.5" stroke-opacity="0.1" />
  
  <!-- Turkey map outline -->
  <path d="M150 200 C170 190 200 185 230 190 C260 195 280 200 310 190 C340 180 360 185 380 195 C400 205 420 200 440 190 C460 180 480 185 500 195 C520 205 540 200 560 190" stroke="#5CE5FF" stroke-width="2" stroke-opacity="0.6" fill="none" />
  
  <!-- Data flow lines -->
  <path d="M200 220 L300 320 M250 220 L350 320 M300 220 L400 320 M350 220 L450 320 M400 220 L500 320" stroke="#00E5FF" stroke-width="1.5" stroke-dasharray="5,5" stroke-opacity="0.7">
    <animate attributeName="stroke-dashoffset" from="0" to="50" dur="3s" repeatCount="indefinite" />
  </path>
  
  <!-- Small package icons from Turkey -->
  <rect x="180" y="200" width="30" height="30" rx="2" fill="#7B5CFF" fill-opacity="0.8" />
  <rect x="230" y="200" width="30" height="30" rx="2" fill="#00B4FF" fill-opacity="0.8" />
  <rect x="280" y="200" width="30" height="30" rx="2" fill="#7B5CFF" fill-opacity="0.8" />
  <rect x="330" y="200" width="30" height="30" rx="2" fill="#00B4FF" fill-opacity="0.8" />
  <rect x="380" y="200" width="30" height="30" rx="2" fill="#7B5CFF" fill-opacity="0.8" />
  <rect x="430" y="200" width="30" height="30" rx="2" fill="#00B4FF" fill-opacity="0.8" />
  
  <!-- Consolidation point -->
  <circle cx="400" cy="320" r="40" fill="#0A1A2F" stroke="#00E5FF" stroke-width="2" />
  <path d="M380 310 L420 310 M380 320 L420 320 M380 330 L420 330" stroke="#00E5FF" stroke-width="2" />
  
  <!-- Shipping container -->
  <rect x="300" y="400" width="200" height="100" rx="5" fill="#0077B6" stroke="#00E5FF" stroke-width="2" />
  <rect x="310" y="410" width="180" height="80" rx="3" fill="#061425" stroke="#00E5FF" stroke-width="1" stroke-opacity="0.5" />
  <rect x="320" y="420" width="40" height="30" rx="2" fill="#7B5CFF" fill-opacity="0.6" />
  <rect x="370" y="420" width="40" height="30" rx="2" fill="#00B4FF" fill-opacity="0.6" />
  <rect x="420" y="420" width="40" height="30" rx="2" fill="#7B5CFF" fill-opacity="0.6" />
  <rect x="320" y="460" width="40" height="20" rx="2" fill="#00B4FF" fill-opacity="0.6" />
  <rect x="370" y="460" width="40" height="20" rx="2" fill="#7B5CFF" fill-opacity="0.6" />
  <rect x="420" y="460" width="40" height="20" rx="2" fill="#00B4FF" fill-opacity="0.6" />
  
  <!-- Ship icon -->
  <path d="M550 450 L650 450 L630 500 L570 500 Z" fill="#0077B6" />
  <path d="M580 450 V430 H620 V450" fill="#0077B6" stroke="#00E5FF" stroke-width="1" />
  <rect x="590" y="410" width="20" height="20" fill="#0077B6" stroke="#00E5FF" stroke-width="1" />
  
  <!-- Data flow from container to ship -->
  <path d="M500 450 L550 450" stroke="#00E5FF" stroke-width="2" stroke-dasharray="5,5">
    <animate attributeName="stroke-dashoffset" from="0" to="50" dur="2s" repeatCount="indefinite" />
  </path>
  
  <!-- Glowing effects -->
  <circle cx="400" cy="320" r="45" fill="none" stroke="#00F5FF" stroke-width="1" opacity="0.5">
    <animate attributeName="r" values="45;50;45" dur="3s" repeatCount="indefinite" />
    <animate attributeName="opacity" values="0.5;0.2;0.5" dur="3s" repeatCount="indefinite" />
  </circle>
  
  <!-- GROOP text -->
  <text x="400" y="150" font-family="Arial, sans-serif" font-size="60" font-weight="bold" text-anchor="middle" fill="#E0FBFC">GROOP</text>
  <text x="400" y="180" font-family="Arial, sans-serif" font-size="16" text-anchor="middle" fill="#9EAEBB">Shipping-Documentation and Payment Consolidation</text>
  
  <!-- Digital particles -->
  <circle cx="200" cy="250" r="1.5" fill="#00F5FF">
    <animate attributeName="opacity" values="0.2;1;0.2" dur="3s" repeatCount="indefinite" />
  </circle>
  <circle cx="250" cy="270" r="1.5" fill="#00F5FF">
    <animate attributeName="opacity" values="0.2;1;0.2" dur="2.5s" repeatCount="indefinite" />
  </circle>
  <circle cx="300" cy="240" r="1.5" fill="#00F5FF">
    <animate attributeName="opacity" values="0.2;1;0.2" dur="4s" repeatCount="indefinite" />
  </circle>
  <circle cx="350" cy="260" r="1.5" fill="#00F5FF">
    <animate attributeName="opacity" values="0.2;1;0.2" dur="3.5s" repeatCount="indefinite" />
  </circle>
  <circle cx="400" cy="250" r="1.5" fill="#00F5FF">
    <animate attributeName="opacity" values="0.2;1;0.2" dur="3s" repeatCount="indefinite" />
  </circle>
  <circle cx="450" cy="270" r="1.5" fill="#00F5FF">
    <animate attributeName="opacity" values="0.2;1;0.2" dur="4.5s" repeatCount="indefinite" />
  </circle>
  <circle cx="500" cy="240" r="1.5" fill="#00F5FF">
    <animate attributeName="opacity" values="0.2;1;0.2" dur="3.2s" repeatCount="indefinite" />
  </circle>
  
  <!-- Additional data flow lines -->
  <path d="M400 360 L400 400" stroke="#00E5FF" stroke-width="2" stroke-dasharray="5,5">
    <animate attributeName="stroke-dashoffset" from="0" to="50" dur="2s" repeatCount="indefinite" />
  </path>
</svg> 