
<svg width="800" height="450" viewBox="0 0 800 450" fill="none" xmlns="http://www.w3.org/2000/svg">
  <!-- Background -->
  <rect width="800" height="450" rx="8" fill="#0A1929"/>
  
  <!-- Header -->
  <rect width="800" height="60" fill="#060F18"/>
  <rect x="20" y="20" width="120" height="20" rx="4" fill="#1E88E5" opacity="0.9"/>
  <circle cx="750" cy="30" r="15" fill="#060F18" stroke="#9E9E9E" stroke-width="1.5"/>
  
  <!-- Sidebar -->
  <rect width="200" height="390" y="60" fill="#060F18"/>
  <rect x="20" y="85" width="160" height="10" rx="2" fill="#9E9E9E" opacity="0.6"/>
  <rect x="20" y="115" width="160" height="8" rx="2" fill="#E0E0E0" opacity="0.3"/>
  <rect x="20" y="145" width="160" height="8" rx="2" fill="#E0E0E0" opacity="0.3"/>
  <rect x="20" y="175" width="160" height="8" rx="2" fill="#E0E0E0" opacity="0.3"/>
  <rect x="20" y="205" width="160" height="8" rx="2" fill="#E0E0E0" opacity="0.3"/>
  <rect x="20" y="390" width="160" height="40" rx="4" fill="#1E88E5" opacity="0.2"/>
  <rect x="40" y="405" width="120" height="10" rx="2" fill="#E0E0E0" opacity="0.7"/>
  
  <!-- Main Content -->
  <rect x="220" y="80" width="560" height="90" rx="6" fill="#0A1929" opacity="0.7" stroke="#1E88E5" stroke-width="1" stroke-opacity="0.3"/>
  <rect x="240" y="100" width="200" height="12" rx="2" fill="#E0E0E0"/>
  <rect x="240" y="120" width="150" height="8" rx="2" fill="#9E9E9E" opacity="0.6"/>
  <rect x="240" y="140" width="80" height="10" rx="2" fill="#1E88E5"/>
  <rect x="650" y="105" width="100" height="40" rx="4" fill="#1E88E5"/>
  
  <!-- Charts -->
  <rect x="220" y="190" width="270" height="200" rx="6" fill="#0A1929" opacity="0.7" stroke="#E0E0E0" stroke-width="1" stroke-opacity="0.1"/>
  <rect x="240" y="210" width="150" height="12" rx="2" fill="#E0E0E0"/>
  <rect x="240" y="230" width="230" height="140" rx="4" fill="#060F18"/>
  
  <!-- Bar chart -->
  <rect x="260" y="330" width="20" height="20" rx="2" fill="#1E88E5" opacity="0.7"/>
  <rect x="290" y="310" width="20" height="40" rx="2" fill="#1E88E5" opacity="0.8"/>
  <rect x="320" y="290" width="20" height="60" rx="2" fill="#1E88E5" opacity="0.9"/>
  <rect x="350" y="270" width="20" height="80" rx="2" fill="#1E88E5"/>
  <rect x="380" y="290" width="20" height="60" rx="2" fill="#1E88E5" opacity="0.9"/>
  <rect x="410" y="320" width="20" height="30" rx="2" fill="#1E88E5" opacity="0.8"/>
  <rect x="440" y="340" width="20" height="10" rx="2" fill="#1E88E5" opacity="0.7"/>
  
  <!-- Data table -->
  <rect x="510" y="190" width="270" height="200" rx="6" fill="#0A1929" opacity="0.7" stroke="#E0E0E0" stroke-width="1" stroke-opacity="0.1"/>
  <rect x="530" y="210" width="150" height="12" rx="2" fill="#E0E0E0"/>
  
  <!-- Table rows -->
  <rect x="530" y="240" width="230" height="1" fill="#9E9E9E" opacity="0.3"/>
  <rect x="530" y="245" width="40" height="8" rx="2" fill="#E0E0E0" opacity="0.7"/>
  <rect x="590" y="245" width="80" height="8" rx="2" fill="#E0E0E0" opacity="0.5"/>
  <rect x="690" y="245" width="40" height="8" rx="2" fill="#1E88E5" opacity="0.8"/>
  
  <rect x="530" y="270" width="230" height="1" fill="#9E9E9E" opacity="0.3"/>
  <rect x="530" y="275" width="40" height="8" rx="2" fill="#E0E0E0" opacity="0.7"/>
  <rect x="590" y="275" width="80" height="8" rx="2" fill="#E0E0E0" opacity="0.5"/>
  <rect x="690" y="275" width="40" height="8" rx="2" fill="#1E88E5" opacity="0.8"/>
  
  <rect x="530" y="300" width="230" height="1" fill="#9E9E9E" opacity="0.3"/>
  <rect x="530" y="305" width="40" height="8" rx="2" fill="#E0E0E0" opacity="0.7"/>
  <rect x="590" y="305" width="80" height="8" rx="2" fill="#E0E0E0" opacity="0.5"/>
  <rect x="690" y="305" width="40" height="8" rx="2" fill="#1E88E5" opacity="0.8"/>
  
  <rect x="530" y="330" width="230" height="1" fill="#9E9E9E" opacity="0.3"/>
  <rect x="530" y="335" width="40" height="8" rx="2" fill="#E0E0E0" opacity="0.7"/>
  <rect x="590" y="335" width="80" height="8" rx="2" fill="#E0E0E0" opacity="0.5"/>
  <rect x="690" y="335" width="40" height="8" rx="2" fill="#1E88E5" opacity="0.8"/>
  
  <rect x="530" y="360" width="230" height="1" fill="#9E9E9E" opacity="0.3"/>
  <rect x="530" y="365" width="40" height="8" rx="2" fill="#E0E0E0" opacity="0.7"/>
  <rect x="590" y="365" width="80" height="8" rx="2" fill="#E0E0E0" opacity="0.5"/>
  <rect x="690" y="365" width="40" height="8" rx="2" fill="#1E88E5" opacity="0.8"/>
  
  <!-- Glowing elements -->
  <circle cx="740" cy="110" r="5" fill="#1E88E5">
    <animate attributeName="opacity" values="1;0.6;1" dur="2s" repeatCount="indefinite" />
  </circle>
  <rect x="240" y="140" width="80" height="10" rx="2" fill="#1E88E5">
    <animate attributeName="opacity" values="1;0.7;1" dur="3s" repeatCount="indefinite" />
  </rect>
</svg>
